{"title":"One Dream - Babbal Rai, Preet Hundal - Full HD - Team truHD HEVC","uid":12402516,"size":51702712,"categoryP":"video","categoryS":"music_videos","magnet":"?xt=urn:btih:05d098e6bba96e998b9739043c321024ff932533&amp;dn=One+Dream+-+Babbal+Rai%2C+Preet+Hundal+-+Full+HD+-+Team+truHD+HEVC&amp;tr=udp%3A%2F%2Ftracker.openbittorrent.com%3A80&amp;tr=udp%3A%2F%2Fopen.demonii.com%3A1337&amp;tr=udp%3A%2F%2Ftracker.coppersurfer.tk%3A6969&amp;tr=udp%3A%2F%2Fexodus.desync.com%3A6969","seeders":2,"leechers":0,"uploader":"Aainul","files":5,"time":1442048016,"description":"One Dream - Babbal Rai &amp; Preet Hundal - Full HD 1080p - Team truHD HEVC\n\nSource: WEB-DL\n\nEncoder: truHD HEVC Encoding Team\n\nEncoded File Info:\n\nGeneral\n\nFormat                                   : MPEG-4\nFormat profile                           : Base Media\nCodec ID                                 : iso4\nFile size                                : 49.1 MiB\nDuration                                 : 4mn 2s\nOverall bit rate                         : 1 700 Kbps\nEncoded date                             : UTC 2015-09-11 08:03:22\nTagged date                              : UTC 2015-09-11 08:03:22\n\nVideo\nID                                       : 1\nFormat                                   : HEVC\nFormat/Info                              : High Efficiency Video Coding\nCodec ID                                 : hvc1\nCodec ID/Info                            : High Efficiency Video Coding\nDuration                                 : 4mn 2s\nBit rate                                 : 1 505 Kbps\nMaximum bit rate                         : 3 846 Kbps\nWidth                                    : 1 920 pixels\nHeight                                   : 1 080 pixels\nDisplay aspect ratio                     : 16:9\nFrame rate mode                          : Constant\nFrame rate                               : 25.000 fps\nBits/(Pixel*Frame)                       : 0.029\nStream size                              : 43.4 MiB (88%)\nTitle                                    : Video\nEncoded date                             : UTC 2015-09-11 08:03:22\nTagged date                              : UTC 2015-09-11 08:03:25\n\nAudio\nID                                       : 2\nFormat                                   : AC-3\nFormat/Info                              : Audio Coding 3\nMode extension                           : CM (complete main)\nFormat settings, Endianness              : Big\nCodec ID                                 : ac-3\nDuration                                 : 4mn 2s\nBit rate mode                            : Constant\nBit rate                                 : 192 Kbps\nMaximum bit rate                         : 201 Kbps\nChannel(s)                               : 2 channels\nChannel positions                        : Front: L R\nSampling rate                            : 44.1 KHz\nBit depth                                : 16 bits\nCompression mode                         : Lossy\nStream size                              : 5.54 MiB (11%)\nTitle                                    : Team truHD truAudio\nLanguage                                 : Panjabi\nEncoded date                             : UTC 2015-09-11 08:03:24\nTagged date                              : UTC 2015-09-11 08:03:25\n\n\nScreenShots:\n &lt;a href=&quot;\nhttp://i.imgur.com/gBdlRl8.jpg&quot; rel=&quot;nofollow&quot; target=&quot;_NEW&quot;&gt;\nhttp://i.imgur.com/gBdlRl8.jpg&lt;/a&gt;\n\n\nLike Us On FB And Request Accepted\n\nKickAssTorrents:    &lt;a href=&quot;\nhttps://kat.cr/user/Aainul/&quot; rel=&quot;nofollow&quot; target=&quot;_NEW&quot;&gt;\nhttps://kat.cr/user/Aainul/&lt;/a&gt;\nGloTorrents:    &lt;a href=&quot;\nhttps://glodls.to/user/Aainul&quot; rel=&quot;nofollow&quot; target=&quot;_NEW&quot;&gt;\nhttps://glodls.to/user/Aainul&lt;/a&gt;\nThePirateBay:    &lt;a href=&quot;\nhttps://thepiratebay.vg/user/Aainul/&quot; rel=&quot;nofollow&quot; target=&quot;_NEW&quot;&gt;\nhttps://thepiratebay.vg/user/Aainul/&lt;/a&gt;\n1337x Torrents:    &lt;a href=&quot;\nhttp://1337.to/user/Aainul/&quot; rel=&quot;nofollow&quot; target=&quot;_NEW&quot;&gt;\nhttp://1337.to/user/Aainul/&lt;/a&gt;\n\n\nNote: All Videos Uploaded By Me Are For Review Purpose. If You Like IT, Google IT And Buy IT - Thanks\n\n\nKing Regards\ntruHD HEVC Team\n\nShare Among Friends And Relatives","torrent":{"xt":"urn:btih:05d098e6bba96e998b9739043c321024ff932533","amp;dn":"One+Dream+-+Babbal+Rai%2C+Preet+Hundal+-+Full+HD+-+Team+truHD+HEVC","amp;tr":["udp%3A%2F%2Ftracker.openbittorrent.com%3A80","udp%3A%2F%2Fopen.demonii.com%3A1337","udp%3A%2F%2Ftracker.coppersurfer.tk%3A6969","udp%3A%2F%2Fexodus.desync.com%3A6969"],"infoHash":"05d098e6bba96e998b9739043c321024ff932533","infoHashBuffer":{"type":"Buffer","data":[5,208,152,230,187,169,110,153,139,151,57,4,60,50,16,36,255,147,37,51]},"announce":[],"urlList":[]}}